<?xml version="1.0" encoding="utf-8"?>
<!-- Generator: Adobe Illustrator 12.0.0, SVG Export Plug-In . SVG Version: 6.00 Build 51448)  -->
<!DOCTYPE svg PUBLIC "-//W3C//DTD SVG 1.1//EN" "http://www.w3.org/Graphics/SVG/1.1/DTD/svg11.dtd" [
	<!ENTITY ns_svg "http://www.w3.org/2000/svg">
	<!ENTITY ns_xlink "http://www.w3.org/1999/xlink">
]>
<svg  version="1.1" id="Ebene_1" xmlns="&ns_svg;" xmlns:xlink="&ns_xlink;" width="43.248" height="26" viewBox="0 0 43.248 26"
	 overflow="visible" enable-background="new 0 0 43.248 26" xml:space="preserve">
<g>
	<path fill="#004A99" d="M23.438,1.411l-1.265,4.375c-1.849-1.211-4.172-1.817-6.969-1.817c-2.984,0-5.407,1.048-7.268,3.145
		c-1.791,2.003-2.686,4.534-2.686,7.59c0,2.074,0.643,3.803,1.928,5.184c1.332,1.43,3.044,2.145,5.139,2.145
		c1.277,0,2.104-0.082,2.479-0.246l1.406-6.66h-5.326l0.827-3.969h10.205l-2.881,13.718C17.233,25.625,14.99,26,12.297,26
		c-3.841,0-6.816-0.891-8.924-2.672C1.124,21.418,0,18.587,0,14.836c0-4.558,1.375-8.18,4.125-10.863C6.853,1.325,10.499,0,15.063,0
		C18.211,0,21.003,0.471,23.438,1.411z"/>
	<path fill="#004A99" d="M43.248,1.111L42.05,5.27c-1.69-0.867-3.434-1.301-5.23-1.301c-1.08,0-2.008,0.21-2.783,0.631
		c-0.963,0.515-1.444,1.262-1.444,2.244c0,1.063,0.745,2.07,2.236,3.019c2.56,1.652,3.933,2.566,4.121,2.742
		c1.491,1.335,2.236,3,2.236,4.993c0,2.895-1.038,5.063-3.116,6.505C36.274,25.368,33.863,26,30.836,26
		c-2.218,0-4.612-0.469-7.182-1.405l1.304-4.286c2.502,1.148,4.558,1.723,6.167,1.723c1.327,0,2.432-0.316,3.313-0.95
		c0.998-0.716,1.497-1.706,1.497-2.974c0-1.219-0.745-2.304-2.236-3.254c-1.374-0.855-2.747-1.71-4.121-2.566
		c-1.491-1.23-2.236-2.795-2.236-4.694c0-2.496,0.962-4.424,2.886-5.784C31.929,0.604,34.093,0,36.72,0
		C39.218,0,41.395,0.371,43.248,1.111z"/>
</g>
</svg>
